# xmcd CD database file
# Copyright (C) 1995-1998 Ti Kan
#
# Track frame offsets:
#	150
#	16010
#	32019
#	53214
#	70377
#	86563
#	103784
#	124660
#	151655
#	166036
#	192295
#	207832
#	231633
#	252345
#
# Disc length: 3565 seconds
#
# Revision: 1
# Processed by: cddbd v1.4PL0 Copyright (c) Steve Scherf et al.
# Submitted via: CDex 1.30Release
#
DISCID=b30deb0e
DTITLE=The Hitman Blues Band - Angel In The Shadows
DYEAR=2003
DGENRE=Blues
TTITLE0=Slither
TTITLE1=Fine Piece Of Merchandise
TTITLE2=Angel In The Shadows
TTITLE3=Hammer Down
TTITLE4=Hitman Moan
TTITLE5=I Know That You Love Me
TTITLE6=Sharing This Christmas With The Blues
TTITLE7=Drinking My Blues Away
TTITLE8=Listen To The Wind Blow
TTITLE9=That's What It's Like To Be A Man
TTITLE10=Living In A Hurricane
TTITLE11=Two Minute Warning
TTITLE12=On The Rebound
TTITLE13=Mean Mistreater
EXTD=YEAR: 2003 ID3G:   0
EXTT0=
EXTT1=
EXTT2=
EXTT3=
EXTT4=
EXTT5=
EXTT6=
EXTT7=
EXTT8=
EXTT9=
EXTT10=
EXTT11=
EXTT12=
EXTT13=
PLAYORDER=
